<svg width="26" height="26" viewBox="0 0 26 26" fill="none" xmlns="http://www.w3.org/2000/svg">
<path d="M10.4338 10.5989L11.3315 7.4587C11.6679 6.2833 13.3338 6.2833 13.6702 7.4587L14.5669 10.5989C14.6237 10.7975 14.7302 10.9784 14.8762 11.1245C15.0223 11.2706 15.2032 11.377 15.4019 11.4338L18.542 12.3305C19.7174 12.667 19.7174 14.3328 18.542 14.6692L15.4019 15.5659C15.2032 15.6227 15.0223 15.7292 14.8762 15.8753C14.7302 16.0213 14.6237 16.2022 14.5669 16.4009L13.6702 19.541C13.3338 20.7164 11.6679 20.7164 11.3315 19.541L10.4348 16.4009C10.378 16.2022 10.2715 16.0213 10.1255 15.8753C9.97937 15.7292 9.79847 15.6227 9.59983 15.5659L6.45968 14.6692C5.28427 14.3328 5.28427 12.667 6.45968 12.3305L9.59983 11.4338C9.79847 11.377 9.97937 11.2706 10.1255 11.1245C10.2715 10.9784 10.378 10.7975 10.4348 10.5989" fill="black" fill-opacity="0.16"/>
<path d="M10.4329 10.599L11.3307 7.45883C11.6671 6.28343 13.3329 6.28343 13.6693 7.45883L14.5661 10.599C14.6229 10.7976 14.7293 10.9785 14.8754 11.1246C15.0215 11.2707 15.2024 11.3771 15.401 11.4339L18.5412 12.3307C19.7166 12.6671 19.7166 14.3329 18.5412 14.6693L15.401 15.5661C15.2024 15.6229 15.0215 15.7293 14.8754 15.8754C14.7293 16.0215 14.6229 16.2024 14.5661 16.401L13.6693 19.5412C13.3329 20.7166 11.6671 20.7166 11.3307 19.5412L10.4339 16.401C10.3771 16.2024 10.2707 16.0215 10.1246 15.8754C9.97852 15.7293 9.79762 15.6229 9.59898 15.5661L6.45883 14.6693C5.28343 14.3329 5.28343 12.6671 6.45883 12.3307L9.59898 11.4339C9.79762 11.3771 9.97852 11.2707 10.1246 11.1246C10.2707 10.9785 10.3761 10.7976 10.4329 10.599ZM4.82948 5.68052L5.21047 4.15351C5.26113 3.94883 5.55296 3.94883 5.60362 4.15351L5.98563 5.68052C5.99442 5.71618 6.01273 5.74878 6.03861 5.77484C6.06448 5.80089 6.09696 5.81943 6.13255 5.82846L7.66058 6.21047C7.86526 6.26113 7.86526 6.55194 7.66058 6.60362L6.13255 6.98563C6.09708 6.99458 6.06469 7.01296 6.03883 7.03883C6.01296 7.06469 5.99458 7.09708 5.98563 7.13255L5.60362 8.66058C5.55296 8.86526 5.26113 8.86526 5.21047 8.66058L4.82846 7.13255C4.81951 7.09708 4.80113 7.06469 4.77526 7.03883C4.7494 7.01296 4.71701 6.99458 4.68154 6.98563L3.15351 6.60362C2.94883 6.55296 2.94883 6.26113 3.15351 6.21047L4.68154 5.82846C4.71713 5.81943 4.74961 5.80089 4.77548 5.77484C4.80136 5.74878 4.82069 5.71618 4.82948 5.68052ZM19.0154 19.8674L19.3964 18.3394C19.447 18.1347 19.7379 18.1347 19.7895 18.3394L20.1715 19.8674C20.1805 19.9029 20.1989 19.9353 20.2247 19.9612C20.2506 19.987 20.283 20.0054 20.3185 20.0144L21.8465 20.3964C22.0512 20.447 22.0512 20.7379 21.8465 20.7895L20.3185 21.1715C20.283 21.1805 20.2506 21.1989 20.2247 21.2247C20.1989 21.2506 20.1805 21.283 20.1715 21.3185L19.7895 22.8465C19.7389 23.0512 19.4481 23.0512 19.3964 22.8465L19.0144 21.3185C19.0054 21.283 18.987 21.2506 18.9612 21.2247C18.9353 21.1989 18.9029 21.1805 18.8674 21.1715L17.3394 20.7895C17.1347 20.7389 17.1347 20.447 17.3394 20.3964L18.8674 20.0144C18.9029 20.0054 18.9353 19.987 18.9612 19.9612C18.987 19.9353 19.0064 19.9029 19.0154 19.8674Z" fill="#49D8FF" stroke="#49D8FF" stroke-width="2.33333" stroke-miterlimit="10" stroke-linecap="round" stroke-linejoin="round"/>
</svg>
