<svg width="26" height="26" viewBox="0 0 26 26" fill="none" xmlns="http://www.w3.org/2000/svg">
<path d="M15.56 6.12301L17.1633 4.51968C17.3645 4.31839 17.6034 4.15872 17.8663 4.04978C18.1292 3.94084 18.4111 3.88477 18.6957 3.88477C18.9803 3.88477 19.2621 3.94084 19.525 4.04978C19.7879 4.15872 20.0268 4.31839 20.228 4.51968L21.7599 6.05151C22.1661 6.45782 22.3942 7.00882 22.3942 7.58335C22.3942 8.15787 22.1661 8.70887 21.7599 9.11518L20.1565 10.7185M15.56 6.12301L5.14262 16.5393C4.78293 16.899 4.56127 17.3737 4.51645 17.8804L4.25429 20.8488C4.24021 21.0066 4.26091 21.1655 4.31493 21.3145C4.36895 21.4634 4.45498 21.5987 4.56695 21.7107C4.67892 21.8228 4.81411 21.9089 4.96299 21.9631C5.11187 22.0173 5.27081 22.0381 5.42862 22.0242L8.39695 21.762C8.90442 21.7177 9.38004 21.496 9.74029 21.1358L20.1565 10.7185M15.56 6.12301L20.1565 10.7185" stroke="#00AEFF" stroke-width="1.69565" stroke-linecap="round" stroke-linejoin="round"/>
</svg>
