<svg width="56" height="56" viewBox="0 0 56 56" fill="none" xmlns="http://www.w3.org/2000/svg">
<path d="M18.666 18.6669V43.5558C18.666 44.3809 18.9938 45.1722 19.5772 45.7557C20.1607 46.3391 20.952 46.6669 21.7771 46.6669H40.4438C41.2689 46.6669 42.0602 46.3391 42.6437 45.7557C43.2271 45.1722 43.5549 44.3809 43.5549 43.5558V25.4211C43.5549 25.0067 43.472 24.5964 43.3112 24.2144C43.1504 23.8324 42.9149 23.4864 42.6185 23.1967L35.7118 16.4425C35.1306 15.8741 34.35 15.5559 33.5371 15.5558H21.7771C20.952 15.5558 20.1607 15.8836 19.5772 16.467C18.9938 17.0505 18.666 17.8418 18.666 18.6669Z" fill="white" stroke="#00AEFF" stroke-width="3.11111" stroke-linecap="round" stroke-linejoin="round"/>
<path d="M34.2227 15.5558V21.778C34.2227 22.6031 34.5504 23.3944 35.1339 23.9779C35.7173 24.5613 36.5086 24.8891 37.3338 24.8891H43.556" fill="white"/>
<path d="M34.2227 15.5558V21.778C34.2227 22.6031 34.5504 23.3944 35.1339 23.9779C35.7173 24.5613 36.5086 24.8891 37.3338 24.8891H43.556" stroke="#00AEFF" stroke-width="3.11111" stroke-linejoin="round"/>
<path d="M14.7821 16.9314L15.8157 13.3159C16.2031 11.9626 18.1211 11.9626 18.5084 13.3159L19.5409 16.9314C19.6063 17.1601 19.7288 17.3684 19.897 17.5366C20.0652 17.7048 20.2735 17.8274 20.5022 17.8927L24.1177 18.9252C25.4711 19.3126 25.4711 21.2306 24.1177 21.6179L20.5022 22.6504C20.2735 22.7158 20.0652 22.8383 19.897 23.0065C19.7288 23.1747 19.6063 23.383 19.5409 23.6117L18.5084 27.2272C18.1211 28.5806 16.2031 28.5806 15.8157 27.2272L14.7832 23.6117C14.7179 23.383 14.5953 23.1747 14.4271 23.0065C14.2589 22.8383 14.0506 22.7158 13.8219 22.6504L10.2064 21.6179C8.85307 21.2306 8.85307 19.3126 10.2064 18.9252L13.8219 17.8927C14.0506 17.8274 14.2589 17.7048 14.4271 17.5366C14.5953 17.3684 14.7179 17.1601 14.7832 16.9314" fill="black" fill-opacity="0.16"/>
<path d="M14.7807 16.932L15.8144 13.3165C16.2017 11.9632 18.1197 11.9632 18.5071 13.3165L19.5396 16.932C19.6049 17.1607 19.7275 17.369 19.8957 17.5372C20.0639 17.7054 20.2722 17.828 20.5009 17.8934L24.1164 18.9259C25.4697 19.3132 25.4697 21.2312 24.1164 21.6185L20.5009 22.651C20.2722 22.7164 20.0639 22.839 19.8957 23.0072C19.7275 23.1754 19.6049 23.3836 19.5396 23.6124L18.5071 27.2279C18.1197 28.5812 16.2017 28.5812 15.8144 27.2279L14.7819 23.6124C14.7165 23.3836 14.594 23.1754 14.4258 23.0072C14.2576 22.839 14.0493 22.7164 13.8206 22.651L10.2051 21.6185C8.85174 21.2312 8.85174 19.3132 10.2051 18.9259L13.8206 17.8934C14.0493 17.828 14.2576 17.7054 14.4258 17.5372C14.594 17.369 14.7154 17.1607 14.7807 16.932ZM8.32907 11.269L8.76774 9.51086C8.82607 9.27519 9.16207 9.27519 9.22041 9.51086L9.66024 11.269C9.67036 11.3101 9.69144 11.3476 9.72124 11.3776C9.75103 11.4076 9.78842 11.429 9.82941 11.4394L11.5887 11.8792C11.8244 11.9375 11.8244 12.2724 11.5887 12.3319L9.82941 12.7717C9.78857 12.782 9.75128 12.8032 9.72149 12.8329C9.69171 12.8627 9.67054 12.9 9.66024 12.9409L9.22041 14.7002C9.16207 14.9359 8.82607 14.9359 8.76774 14.7002L8.32791 12.9409C8.3176 12.9 8.29644 12.8627 8.26665 12.8329C8.23687 12.8032 8.19958 12.782 8.15874 12.7717L6.39941 12.3319C6.16374 12.2735 6.16374 11.9375 6.39941 11.8792L8.15874 11.4394C8.19972 11.429 8.23711 11.4076 8.26691 11.3776C8.29671 11.3476 8.31896 11.3101 8.32907 11.269ZM24.6624 27.6035L25.1011 25.8442C25.1594 25.6085 25.4942 25.6085 25.5537 25.8442L25.9936 27.6035C26.0039 27.6444 26.025 27.6817 26.0548 27.7114C26.0846 27.7412 26.1219 27.7624 26.1627 27.7727L27.9221 28.2125C28.1577 28.2709 28.1577 28.6057 27.9221 28.6652L26.1627 29.105C26.1219 29.1153 26.0846 29.1365 26.0548 29.1663C26.025 29.1961 26.0039 29.2334 25.9936 29.2742L25.5537 31.0335C25.4954 31.2692 25.1606 31.2692 25.1011 31.0335L24.6612 29.2742C24.6509 29.2334 24.6298 29.1961 24.6 29.1663C24.5702 29.1365 24.5329 29.1153 24.4921 29.105L22.7327 28.6652C22.4971 28.6069 22.4971 28.2709 22.7327 28.2125L24.4921 27.7727C24.5329 27.7624 24.5702 27.7412 24.6 27.7114C24.6298 27.6817 24.6521 27.6444 24.6624 27.6035Z" fill="#49D8FF" stroke="#49D8FF" stroke-width="2.33333" stroke-miterlimit="10" stroke-linecap="round" stroke-linejoin="round"/>
</svg>
